PathFileType	4	(X/Y/Z)	C:/Users/beibeiliu/ov580/test_trc\sequence.28_training_dense_right.trc
DataRate	CameraRate	NumFrames	NumMarkers	Units	OrigDataRate	OrigDataStartFrame	OrigNumFrames
120	120	25	19	mm	120	28	110
Frame#	Time	ThumbCMC			ThumbMCP			ThumbIP			ThumbTip			IndexMCP			IndexPIP			IndexTip			MiddleMCP			MiddlePIP			MiddleTip			RingMCP			RingPIP			RingTip			PinkyMCP			PinkyPIP			PinkyTip			BackHand1			BackHand2			BackHand3	
		X0	Y0	Z0	X1	Y1	Z1	X2	Y2	Z2	X3	Y3	Z3	X4	Y4	Z4	X5	Y5	Z5	X6	Y6	Z6	X7	Y7	Z7	X8	Y8	Z8	X9	Y9	Z9	X10	Y10	Z10	X11	Y11	Z11	X12	Y12	Z12	X13	Y13	Z13	X14	Y14	Z14	X15	Y15	Z15	X16	Y16	Z16	X17	Y17	Z17	X18	Y18	Z18	
27	0.225	54.4003	52.1939	32.7448	40.0191	34.487	14.3074	31.9441	24.4208	-10.2816	27.6209	13.0108	-24.7941	55.4515	54.6623	-36.4134	48.6654	44.1973	-55.3015	40.3494	25.5519	-73.2801	76.0071	52.639	-43.7581	74.807	40.0987	-67.6191	67.3003	20.5469	-87.756	97.3848	46.6584	-37.534	90.4763	34.9208	-60.3461	90.7694	18.1885	-77.4864	115.409	39.1839	-28.0151	118.115	29.6166	-42.9078	112.122	20.3993	-63.8502	101.163	63.4223	2.19945	103.875	70.8208	31.6279	77.7455	72.7256	16.2787	
28	0.233333	53.767	50.9762	29.5462	38.4512	34.3531	10.0282	32.2892	24.6844	-6.71957	26.0769	12.9894	-25.2009	50.2395	54.1822	-38.1804	45.1754	43.3504	-55.65	38.6348	22.0182	-74.2024	73.6869	51.748	-45.2766	69.7228	40.6984	-66.0997	66.6132	20.964	-87.6801	93.5487	44.7804	-41.2818	91.8164	33.8601	-60.7552	87.6306	19.5883	-75.9839	112.597	37.8537	-28.6791	113.559	29.0021	-45.5922	115.608	20.4808	-60.8068	98.1219	63.9082	4.28669	103.964	68.8418	30.5436	73.2349	71.8838	15.7731	
29	0.241667	54.3101	50.3122	31.6626	38.1369	32.7351	13.8925	27.1097	22.4117	-7.57617	26.8292	12.3173	-27.7901	52.0567	51.1295	-39.385	45.5933	41.7348	-56.0523	39.7998	23.9875	-72.1159	73.7811	50.0316	-46.7037	70.1869	36.8899	-68.1905	62.2754	18.5613	-88.2812	93.3729	43.1766	-38.8384	88.7786	31.476	-61.9081	83.4928	17.5854	-78.0192	110.311	36.9374	-27.3785	112.491	26.7274	-46.3869	114.685	19.5397	-60.7446	97.4608	61.7982	2.37287	104.057	67.906	29.2599	72.0284	70.0949	19.742	
30	0.25	51.1135	49.592	29.6073	35.7561	32.5183	12.2715	28.7387	21.9607	-5.25184	26.0217	11.7719	-22.9918	47.474	51.7346	-35.8646	46.4249	38.8453	-57.2693	39.9925	24.1012	-72.3337	72.4073	48.4848	-45.1285	68.7761	36.1196	-68.8877	65.295	17.7726	-87.2858	92.139	42.6084	-40.9906	86.6281	31.8713	-61.2161	85.5108	14.0537	-79.05	107.503	36.1953	-28.6297	107.05	27.0662	-46.3395	109.972	20.1459	-61.093	97.5437	60.1102	3.5445	100.363	65.6179	27.3525	72.5204	69.885	19.1512	
31	0.258333	52.4014	49.1241	31.2318	36.1448	30.9496	10.3531	29.075	21.3902	-5.87881	24.3714	9.12654	-25.2753	52.5053	51.657	-34.2863	45.0142	38.733	-57.3445	41.7769	21.6818	-73.5685	73.4513	48.8598	-46.0861	71.0457	36.6061	-67.4377	63.6185	17.5901	-88.5502	90.7542	41.9503	-41.0825	89.0449	29.8912	-61.1493	82.8127	17.5081	-75.481	110.521	35.3667	-27.2111	108.468	27.1324	-43.9475	108.14	19.3362	-62.2255	95.5832	59.9364	3.47196	99.0764	68.2344	30.1348	75.5851	68.6844	18.1665	
32	0.266667	51.3003	49.2279	35.2019	35.5047	30.6362	11.6947	27.0408	20.8925	-7.0899	25.8589	9.21082	-25.2153	52.5893	51.975	-32.7091	42.6153	37.8067	-56.7935	39.6168	22.9588	-70.0247	73.4395	48.7614	-41.1734	67.5212	36.5195	-66.6064	67.8535	17.7082	-86.4486	92.4403	41.8204	-38.122	88.6611	30.6877	-59.0134	86.3644	13.8311	-76.3268	110.179	36.2347	-25.2492	113.81	25.8132	-42.1768	109.896	15.5772	-62.5403	100.02	60.5719	5.24114	104.178	64.4904	28.6215	76.3349	68.2988	16.0934	
33	0.275	53.8454	48.1017	33.3978	36.8628	30.5782	16.7498	28.9206	19.6928	-3.10134	24.3576	8.7513	-24.8359	49.5354	51.1839	-35.9738	45.2879	39.6297	-54.9032	43.2898	22.2502	-70.9802	77.5159	47.331	-40.7451	70.4192	36.6587	-66.0849	66.4919	19.3539	-84.5712	94.564	39.7457	-41.0884	91.702	29.1606	-59.6067	89.2968	14.049	-73.5882	112.249	34.409	-27.7137	113.966	25.2787	-42.8904	114.464	14.5486	-63.2732	99.9167	61.3567	5.1799	102.128	64.7906	27.5165	73.956	67.9004	20.7899	
34	0.283333	56.5241	47.9791	30.447	37.2924	31.0229	12.6284	33.8996	21.5552	-3.472	25.3592	9.29042	-25.1556	57.0064	51.2454	-35.2355	44.9677	38.911	-57.8961	42.3858	23.4191	-70.7002	73.3257	48.4929	-44.8488	71.1052	37.0155	-65.2681	66.8238	15.4512	-85.5997	93.463	40.8474	-39.5194	91.9379	29.3052	-57.8522	83.3978	12.7811	-76.7666	112.48	32.8871	-27.9765	113.705	22.2922	-43.9838	110.424	14.1637	-61.6209	103.462	57.195	6.88717	104.861	62.1932	31.2894	77.3087	67.1187	17.7796	
35	0.291667	61.2026	49.6277	33.4796	41.1235	33.4391	9.94562	32.6356	23.7829	-6.30195	31.9889	13.931	-25.4297	56.0733	56.6995	-37.2637	53.0984	43.399	-54.612	42.4942	26.8686	-68.9181	78.3049	51.1347	-46.3335	72.8939	38.6842	-66.9058	68.8728	18.503	-84.1057	98.8834	41.7476	-38.8711	88.7509	30.4427	-61.2751	83.8973	12.9882	-77.1083	113.413	33.1012	-31.5343	111.273	24.6774	-43.0911	107.332	12.6698	-61.7274	104.982	60.4093	6.50738	110.588	61.3146	33.6867	85.6956	68.8217	19.255	
36	0.3	64.6565	52.8584	29.4187	48.0293	36.8097	11.5409	37.2453	29.392	-12.9849	33.1109	20.1075	-28.82	65.1191	62.4935	-35.9689	53.3948	50.7943	-53.8057	48.174	31.7018	-66.0633	78.8668	57.9081	-44.2147	74.0926	44.8671	-64.0984	61.9993	24.6677	-82.8141	99.5356	47.1077	-38.8963	89.5724	34.094	-61.3276	79.3179	19.2775	-74.6239	117.151	35.6198	-28.7102	110.951	24.89	-50.0796	103.952	20.6374	-61.5775	110.022	59.6547	7.29458	113.816	61.9948	29.7923	91.2003	70.7626	23.9673	
37	0.308333	70.2307	56.2489	32.4434	50.1606	43.3221	9.60289	40.5744	37.6426	-16.0412	36.7286	30.1881	-33.1283	69.1715	71.8583	-32.3961	59.9277	59.6884	-51.7878	44.4414	41.7598	-63.3909	84.6923	66.0125	-43.3216	76.4066	52.1471	-63.7458	63.23	31.4423	-78.8633	102.8	54.8838	-39.4809	89.1018	42.2227	-61.0026	76.9169	30.7606	-71.5362	118.11	40.3349	-32.5782	108.676	32.0452	-50.5075	96.8401	26.0296	-64.3485	117.3	64.552	8.87781	122.477	62.578	30.0226	96.0502	76.1024	20.6166	
38	0.316667	72.1173	63.3933	32.1433	53.7119	52.6035	6.81615	45.1039	48.8869	-18.2894	39.9266	41.9875	-33.5679	71.7788	80.5884	-34.6634	58.673	69.3334	-51.109	46.5668	49.6707	-61.007	90.423	72.6611	-41.9155	75.0071	62.8321	-60.771	58.1716	42.5464	-75.5072	101.256	61.2653	-42.1806	92.4609	51.2349	-58.5245	74.8549	39.8471	-70.0421	118.288	47.4224	-31.8189	110.427	39.5811	-47.4081	95.8478	34.7879	-61.3279	119.495	66.7497	8.81589	122.468	64.9806	31.0706	102.412	81.388	22.9956	
39	0.325	70.1719	68.7055	31.0656	56.1469	60.4025	0.314	51.1641	57.0286	-21.1998	43.4699	51.4343	-36.6044	75.3546	90.544	-28.0026	61.1158	80.8758	-47.9369	46.3953	62.3405	-59.8488	88.4616	81.2665	-42.1214	75.3057	67.9339	-62.0223	59.6354	48.8055	-74.4389	104.406	64.3807	-43.7954	89.7489	57.2545	-59.1305	72.4421	45.5307	-70.1625	116.523	53.8672	-33.8825	107.496	44.8648	-51.0425	92.228	38.4224	-64.0085	124.126	68.0243	7.12807	126.264	61.3601	33.0233	104.234	84.7146	24.3427	
40	0.333333	72.2159	71.2607	27.7655	57.4439	61.9088	1.63635	49.3337	60.1188	-20.4907	45.0672	57.9575	-39.7689	77.0213	95.0045	-28.5017	65.3847	83.2376	-47.8691	48.7814	65.2772	-61.7253	94.0721	82.5215	-40.9432	77.9543	74.7824	-57.9842	60.329	56.6844	-74.4512	107.933	66.4952	-39.9724	90.8819	60.7962	-58.4309	76.73	50.0684	-70.6479	120.099	52.3014	-35.6606	108.181	46.4031	-52.2236	94.4293	41.3215	-65.0457	123.122	70.0519	7.42613	127.244	62.4716	32.6484	107.048	81.0387	24.6625	
41	0.341667	74.4663	69.2125	28.5612	56.0625	61.5021	4.02695	51.9099	61.391	-21.3979	43.5657	59.0826	-41.7472	76.2727	95.9204	-27.5046	64.4908	84.4743	-46.8416	50.0583	71.8109	-59.0743	91.2237	84.6195	-41.5518	79.6875	73.8445	-59.7059	62.9703	57.3746	-76.1019	106.761	68.1219	-42.5153	92.8522	64.381	-56.7188	75.841	51.2593	-72.599	121.679	53.5676	-33.3705	105.75	51.1028	-52.5308	96.885	44.718	-64.7722	125.963	68.8959	10.1198	125.679	60.4739	30.1702	105.062	82.1321	27.6305	
42	0.35	75.3742	68.5436	27.5583	58.6206	60.0331	3.30536	50.6336	60.6657	-22.3367	43.1064	59.2961	-42.4919	78.395	93.6718	-30.6515	68.2837	85.2101	-46.1561	54.6672	72.2669	-60.8599	94.323	85.1368	-41.6608	83.7279	77.7682	-58.1582	66.933	63.7111	-76.7646	106.296	73.0859	-38.5362	94.2991	66.2593	-58.3804	80.4467	59.608	-70.3763	123.704	57.145	-33.5036	113.835	54.6126	-50.2569	99.9962	50.7265	-66.7981	125.505	71.0775	11.4656	127.075	61.9679	31.1125	104.362	83.6771	25.5234	
43	0.358333	73.0939	68.5751	26.069	62.7714	59.7261	-0.91218	55.9821	59.0624	-23.6188	51.1378	57.5626	-42.4829	81.8397	98.3269	-27.818	67.1358	89.1625	-51.9513	58.9886	77.0414	-65.5612	96.8997	91.7576	-36.8051	83.613	85.3452	-60.0372	73.7709	72.2775	-78.8801	112.125	81.7041	-38.0756	98.8129	74.0515	-61.1475	91.3148	63.8543	-75.5603	128.476	67.7961	-35.2666	117.234	65.519	-50.9165	107.948	59.4576	-67.5791	125.26	78.2616	12.3244	127.554	69.9231	32.5021	105.974	84.0429	27.7807	
44	0.366667	79.0356	69.9189	18.4387	68.1986	59.2607	-5.3921	63.4905	57.4204	-28.7637	59.238	55.2065	-49.4954	78.7079	101.542	-36.4101	71.7443	92.1358	-54.6317	69.8697	75.0838	-74.072	96.5141	98.0165	-42.7232	91.6974	88.6589	-66.3002	83.0571	74.2891	-86.3649	114.916	89.4149	-44.0301	105.872	81.8421	-65.2921	100.499	69.8792	-79.965	129.378	79.7296	-34.277	124.757	72.7315	-54.5543	113.887	67.8706	-69.0803	126.106	91.8508	7.52239	127.799	77.4175	33.4092	101.648	91.1892	25.9063	
45	0.375	80.5619	73.4279	16.4658	71.1121	58.7966	-10.0171	65.6266	53.3824	-32.2917	62.3791	47.4573	-52.265	81.2376	98.4954	-39.0766	72.1341	83.7059	-59.3124	70.0677	63.4421	-76.6618	95.9384	95.937	-47.6759	90.7781	84.2257	-67.7175	88.5223	63.6637	-88.3493	115.169	89.8021	-43.6379	108.906	76.4427	-67.3643	103.744	63.1301	-82.0177	134.465	80.4762	-40.0161	126.97	72.9204	-52.4691	123.905	60.1887	-71.1064	122.702	97.627	4.63389	130.53	90.7597	30.8906	97.6012	100.474	18.1701	
46	0.383333	77.8238	77.7325	17.6155	72.0633	58.3521	-3.83331	64.9935	46.2956	-27.0252	63.1955	38.3086	-39.1427	75.7026	87.5429	-41.8531	73.0435	68.5423	-57.9672	69.5863	43.8753	-69.4366	96.0083	83.0516	-49.7777	88.1968	64.5171	-67.1608	85.1052	41.473	-79.4447	113.164	78.4214	-45.9814	105.485	59.0922	-63.745	99.1133	41.5877	-73.856	134.335	69.193	-41.3868	126.369	53.5188	-53.5259	116.14	43.5863	-62.8276	127.234	96.7324	-5.48964	130.599	98.4221	21.2183	102.575	104.146	11.9143	
47	0.391667	82.7791	85.1067	22.4637	66.0193	60.3869	4.9978	58.1291	46.1762	-11.316	56.2465	34.5013	-27.0426	73.6923	80.5097	-38.4916	68.7731	56.2928	-50.6166	57.3929	35.9775	-52.6244	94.4368	67.8154	-48.0137	81.1456	45.708	-58.5276	70.6328	21.9696	-62.5924	110.994	62.9695	-42.274	100.091	38.7201	-53.7537	88.7743	23.4466	-55.8243	128.143	54.2785	-34.7694	115.725	40.564	-42.6735	104.598	25.7165	-48.292	130.007	91.9608	-5.20486	132.045	98.3357	21.7029	106.047	105.308	11.4117	
48	0.4	83.0185	92.7167	24.019	62.0254	70.2965	15.82	49.9694	53.1222	0.428989	42.1022	41.634	-6.31257	70.2659	70.8047	-36.4077	56.5225	56.7969	-37.7188	47.1003	34.5169	-34.9209	86.6169	56.4847	-39.3745	68.2824	39.1508	-42.0419	52.5203	16.6025	-37.5437	99.6977	49.3973	-34.4751	86.0006	30.5554	-36.2543	67.5778	10.3534	-30.2289	118.812	39.2404	-22.8283	104.645	22.2408	-25.3932	85.4254	14.9579	-24.8568	130.514	80.4604	-3.43138	137.945	90.4506	16.3629	111.94	103.083	6.73693	
49	0.408333	89.1497	97.0863	22.216	59.8913	80.4782	16.9042	43.6546	69.7827	12.5745	29.9998	56.9089	4.21933	67.2529	72.0787	-28.3469	44.8328	55.1741	-25.9639	28.2792	40.6277	-17.439	76.0594	56.9553	-29.2652	52.7949	35.2663	-26.2398	34.3992	24.4335	-16.4326	86.8125	37.7691	-22.3318	65.6412	29.5621	-19.8792	45.043	17.5823	-8.67199	101.374	31.3758	-11.4937	83.4428	18.4343	-6.68321	64.929	15.1559	-5.6213	126.138	67.6587	-4.35198	135.78	80.2794	16.1137	117.888	96.6956	3.62457	
50	0.416667	91.5109	102.125	19.7104	61.0275	96.6275	20.6463	42.8674	88.3272	14.8183	23.1324	80.0784	7.72453	59.5488	76.908	-26.7687	36.3985	69.2334	-21.8594	17.7133	61.5244	-11.0589	60.701	55.6913	-23.4848	39.5649	50.2572	-17.7585	17.8784	38.8173	-3.30378	70.9066	36.929	-12.8748	49.0633	34.8198	-7.29367	26.6488	32.2541	5.89164	80.8622	27.5921	-0.170034	61.1815	26.1973	2.45085	44.3997	22.3913	11.4202	115.7	57.8418	-4.11704	133.591	67.6604	14.3044	119.496	85.6673	3.45398	
51	0.425	99.2824	102.942	20.043	66.6336	103.104	15.5756	46.9686	100.326	12.5486	25.9972	98.7895	6.34793	59.578	78.6663	-24.8732	35.7481	78.9419	-19.5423	11.7472	83.3076	-8.77904	56.1468	59.8586	-19.0915	30.4364	62.0665	-14.0471	3.71648	66.022	0.104304	56.9927	40.7191	-5.50191	31.0269	49.609	-0.901028	12.2329	52.3081	10.9341	61.1634	31.3158	7.40893	46.4402	33.0336	13.8125	23.5041	38.7561	16.7123	105.249	47.7989	0.137817	126.257	51.4029	19.5765	117.796	76.4198	1.40398	
